<svg width="16" height="10" viewBox="0 0 16 10" fill="none" xmlns="http://www.w3.org/2000/svg">
<path d="M15.6933 1.97652C15.8918 1.76125 16 1.48728 16 1.16439C16 0.518592 15.531 1.13888e-06 14.9357 1.13178e-06C14.6381 1.12823e-06 14.3675 0.136988 14.1601 0.362036L7.99098 7.21135L1.83991 0.362036C1.63247 0.136988 1.35287 9.69807e-07 1.06426 9.66366e-07C0.468997 9.59267e-07 1.13065e-07 0.518592 1.05364e-07 1.16438C1.01513e-07 1.48728 0.10823 1.76125 0.306652 1.97652L7.16122 9.58904C7.39572 9.86301 7.68433 9.99022 8 10C8.31567 10 8.58625 9.86301 8.82976 9.58904L15.6933 1.97652Z" fill="#999999"/>
</svg>
